<?xml version="1.0" encoding="UTF-8"?>
<svg id="Objects" xmlns="http://www.w3.org/2000/svg" version="1.1" viewBox="0 0 853 875">
  <!-- Generator: Adobe Illustrator 29.6.1, SVG Export Plug-In . SVG Version: 2.1.1 Build 9)  -->
  <defs>
    <style>
      .st0 {
        fill: #002b5c;
      }
    </style>
  </defs>
  <g>
    <path class="st0" d="M-397.93-339c-7.29,0-14.58-.95-21.66-2.85-35.25-9.44-125.95-39.74-206.56-116.97-45.01-43.13-80.53-94.68-105.57-153.24-29.95-70.04-45.14-150.81-45.14-240.07v-92.25c0-30.1,20.41-56.17,49.64-63.38,68.12-16.82,196.16-56.14,288.35-130.46,23.73-19.13,58.16-19.13,81.89,0,92.19,74.32,220.23,113.64,288.35,130.46,29.23,7.22,49.64,33.28,49.64,63.38v92.25c0,89.26-15.19,170.03-45.14,240.07-25.04,58.55-60.56,110.11-105.57,153.24-80.61,77.23-171.31,107.53-206.56,116.97-7.08,1.9-14.37,2.85-21.66,2.85ZM-397.93-1116.57c-6.51,0-13.02,2.14-18.33,6.42-41.89,33.77-136.88,96.53-302.33,137.39-13.09,3.23-22.24,14.91-22.24,28.39v92.25c0,84.36,14.21,160.36,42.23,225.9,23.12,54.07,55.88,101.63,97.37,141.38,74.59,71.46,158.39,99.46,190.95,108.18,8.07,2.16,16.6,2.16,24.68,0,32.57-8.72,116.36-36.72,190.95-108.18,41.49-39.75,74.25-87.32,97.37-141.38,28.02-65.54,42.23-141.54,42.23-225.9v-92.25c0-13.48-9.14-25.16-22.24-28.39h0c-165.45-40.85-260.43-103.61-302.33-137.39-5.31-4.28-11.82-6.42-18.32-6.42Z"/>
    <path class="st0" d="M-211.74-708.78c2.46-12.44,18.17-23.88,18.17-37.05s-15.71-24.61-18.17-37.05c-2.54-12.82,7.55-29.39,2.66-41.18-4.98-12-23.87-16.56-31.01-27.23-7.2-10.75-4.22-29.94-13.33-39.05-9.11-9.11-28.31-6.14-39.05-13.33-10.67-7.14-15.23-26.04-27.23-31.01-11.79-4.89-28.36,5.19-41.18,2.66-12.44-2.46-23.89-18.17-37.05-18.17s-24.61,15.71-37.05,18.17c-12.82,2.54-29.39-7.55-41.18-2.66-12,4.98-16.56,23.87-27.22,31.01-10.75,7.2-29.94,4.22-39.05,13.33-9.11,9.11-6.14,28.31-13.33,39.05-7.14,10.66-26.04,15.23-31.02,27.23-4.88,11.79,5.2,28.36,2.66,41.18-2.46,12.44-18.17,23.88-18.17,37.05s15.71,24.61,18.17,37.05c2.54,12.82-7.55,29.39-2.66,41.18,4.98,11.99,23.87,16.56,31.02,27.22,7.19,10.75,4.22,29.94,13.33,39.05s28.31,6.14,39.05,13.33c10.66,7.14,15.23,26.04,27.22,31.01,11.79,4.89,28.36-5.19,41.18-2.66,12.44,2.46,23.88,18.17,37.05,18.17s24.6-15.71,37.05-18.17c12.81-2.54,29.39,7.55,41.18,2.66,12-4.98,16.56-23.87,27.23-31.01,10.74-7.2,29.94-4.22,39.05-13.33s6.14-28.31,13.33-39.05c7.14-10.66,26.04-15.23,31.01-27.22,4.89-11.79-5.2-28.36-2.66-41.18ZM-311.3-764.49l-89.52,89.52c-4.32,4.32-9.98,6.48-15.64,6.48s-11.32-2.16-15.64-6.48l-52.46-52.46c-8.64-8.64-8.64-22.64,0-31.28,8.64-8.64,22.64-8.64,31.28,0l36.82,36.82,73.88-73.88c8.64-8.64,22.64-8.64,31.28,0,8.64,8.64,8.64,22.64,0,31.28Z"/>
  </g>
  <g>
    <path class="st0" d="M431.71,57.43c-217.21,0-393.29,176.08-393.29,393.29s176.08,393.29,393.29,393.29,393.29-176.08,393.29-393.29S648.92,57.43,431.71,57.43ZM431.71,790.61c-187.72,0-339.89-152.17-339.89-339.89S243.99,110.82,431.71,110.82s339.89,152.17,339.89,339.89-152.17,339.89-339.89,339.89Z"/>
    <path class="st0" d="M445.95,237.21v161.79c-4.53-1.25-9.31-1.91-14.24-1.91s-9.71.67-14.24,1.91v-161.79c0-7.87,6.38-14.24,14.24-14.24,3.93,0,7.49,1.59,10.07,4.17,2.58,2.58,4.17,6.14,4.17,10.07Z"/>
    <path class="st0" d="M591.24,396.39c0,5.59-3.46,10.83-9.02,12.83l-97.19,35.7c-1.01-9.45-4.48-18.16-9.75-25.49l97.68-35.88c7.08-2.55,14.9,1.12,17.46,8.2.55,1.53.81,3.09.81,4.63Z"/>
    <circle class="st0" cx="431.71" cy="450.71" r="31.15"/>
    <path class="st0" d="M431.71,175.58c5.56,0,10.08-4.52,10.08-10.08v-30.18c0-5.56-4.52-10.08-10.08-10.08s-10.08,4.52-10.08,10.08v30.18c0,5.56,4.52,10.08,10.08,10.08Z"/>
    <path class="st0" d="M278.99,175.2c-1.52-2.63-4.89-3.53-7.51-2.01-2.63,1.52-3.53,4.89-2.01,7.51l8.23,14.26c1.52,2.63,4.89,3.53,7.51,2.01,2.63-1.52,3.53-4.89,2.01-7.51l-8.23-14.26Z"/>
    <path class="st0" d="M175.95,296.7l-14.26-8.23c-2.63-1.52-6-.61-7.51,2.01-1.52,2.63-.61,6,2.01,7.51l14.26,8.23c2.63,1.52,6,.61,7.51-2.01,1.52-2.63.61-6-2.01-7.51Z"/>
    <path class="st0" d="M170.45,595.2l-14.26,8.23c-2.63,1.52-3.53,4.89-2.01,7.51,1.52,2.63,4.89,3.53,7.51,2.01l14.26-8.23c2.63-1.52,3.53-4.89,2.01-7.51-1.52-2.63-4.89-3.53-7.51-2.01Z"/>
    <path class="st0" d="M285.21,704.46c-2.63-1.52-6-.61-7.51,2.01l-8.23,14.26c-1.52,2.63-.61,6,2.01,7.51s6,.61,7.51-2.01l8.23-14.26c1.52-2.63.61-6-2.01-7.51Z"/>
    <path class="st0" d="M585.73,706.47c-1.52-2.63-4.89-3.53-7.51-2.01-2.63,1.52-3.53,4.89-2.01,7.51l8.23,14.26c1.52,2.63,4.89,3.53,7.51,2.01,2.63-1.52,3.53-4.89,2.01-7.51l-8.23-14.26Z"/>
    <path class="st0" d="M707.23,603.43l-14.26-8.23c-2.63-1.52-6-.61-7.51,2.01s-.61,6,2.01,7.51l14.26,8.23c2.63,1.52,6,.61,7.51-2.01,1.52-2.63.61-6-2.01-7.51Z"/>
    <path class="st0" d="M692.97,306.23l14.26-8.23c2.63-1.52,3.53-4.89,2.01-7.51-1.52-2.63-4.89-3.53-7.51-2.01l-14.26,8.23c-2.63,1.52-3.53,4.89-2.01,7.51,1.52,2.63,4.89,3.53,7.51,2.01Z"/>
    <path class="st0" d="M591.94,173.18c-2.63-1.52-6-.61-7.51,2.01l-8.23,14.26c-1.52,2.63-.61,6,2.01,7.51,2.63,1.52,6,.61,7.51-2.01l8.23-14.26c1.52-2.63.61-6-2.01-7.51Z"/>
    <path class="st0" d="M157.49,450.88c0-5.56-4.52-10.08-10.08-10.08h-30.18c-5.56,0-10.08,4.52-10.08,10.08s4.52,10.08,10.08,10.08h30.18c5.56,0,10.08-4.52,10.08-10.08Z"/>
    <path class="st0" d="M432.79,725.11c-5.56,0-10.08,4.52-10.08,10.08v30.18c0,5.56,4.52,10.08,10.08,10.08s10.08-4.52,10.08-10.08v-30.18c0-5.56-4.52-10.08-10.08-10.08Z"/>
    <path class="st0" d="M747.28,439.72h-30.18c-5.56,0-10.08,4.52-10.08,10.08s4.52,10.08,10.08,10.08h30.18c5.56,0,10.08-4.52,10.08-10.08s-4.52-10.08-10.08-10.08Z"/>
  </g>
</svg>