<?xml version="1.0" encoding="UTF-8"?>
<svg id="Capa_1" xmlns="http://www.w3.org/2000/svg" version="1.1" viewBox="0 0 800 800">
  <!-- Generator: Adobe Illustrator 29.6.1, SVG Export Plug-In . SVG Version: 2.1.1 Build 9)  -->
  <defs>
    <style>
      .st0 {
        fill: #002b5c;
      }
    </style>
  </defs>
  <path class="st0" d="M386.28,230.98c4.21,2.49,8.93,3.74,13.66,3.74s9.45-1.25,13.66-3.74c17.94-10.61,107.41-66.69,107.41-129.77,0-41.33-33.18-74.94-73.96-74.94-17.89,0-34.31,6.46-47.11,17.22-12.81-10.75-29.23-17.22-47.12-17.22-40.79,0-73.97,33.62-73.97,74.94,0,63.08,89.49,119.17,107.43,129.77ZM352.82,79.95c11.18,0,20.28,9.54,20.28,21.26,0,14.83,12.02,26.84,26.84,26.84s26.84-12.02,26.84-26.84c0-11.72,9.09-21.26,20.26-21.26s20.27,9.54,20.27,21.26c0,20.15-35.71,53.29-67.39,74.84-31.68-21.54-67.4-54.69-67.4-74.84,0-11.72,9.1-21.26,20.28-21.26Z"/>
  <path class="st0" d="M799.94,678.6c-.79-106.1-71.59-195.72-168.08-224.32,43.38-23.59,72.9-69.64,72.9-122.49,0-76.79-62.32-139.25-138.93-139.25s-138.93,62.47-138.93,139.25c0,52.85,29.53,98.92,72.92,122.5-7.24,2.15-14.32,4.66-21.26,7.47-17.46-24.7-46.19-40.87-78.63-40.87s-61.14,16.16-78.61,40.84c-6.91-2.81-13.98-5.3-21.19-7.45,43.39-23.58,72.92-69.65,72.92-122.5,0-76.79-62.32-139.25-138.93-139.25s-138.93,62.47-138.93,139.25c0,52.84,29.52,98.9,72.9,122.49C71.04,483.04,0,573.53,0,680.42c0,14.83,12.02,26.84,26.84,26.84h222.8c-3.3,12.66-5.07,25.94-5.07,39.63,0,14.83,12.02,26.84,26.84,26.84h257.02s.04,0,.05,0c14.83,0,26.84-12.02,26.84-26.84,0-.63-.02-1.26-.06-1.88-.15-13.03-1.92-25.67-5.06-37.76h222.95c14.83,0,26.84-12.02,26.84-26.84,0-.61-.02-1.22-.06-1.82ZM565.83,246.22c47,0,85.24,38.39,85.24,85.57s-38.24,85.56-85.24,85.56-85.24-38.38-85.24-85.56c0-47.18,38.24-85.57,85.24-85.57ZM399.93,474.58c23.52,0,42.65,19.22,42.65,42.85s-19.14,42.84-42.65,42.84-42.64-19.22-42.64-42.84c0-23.63,19.13-42.85,42.64-42.85ZM234.11,246.22c47,0,85.24,38.39,85.24,85.57s-38.24,85.56-85.24,85.56-85.24-38.38-85.24-85.56c0-47.18,38.24-85.57,85.24-85.57ZM55.64,653.57c12.91-87.68,88.02-155.17,178.47-155.17,24.67,0,48.18,5.03,69.61,14.12-.08,1.62-.12,3.26-.12,4.9,0,34.46,18.13,64.75,45.33,81.83-29.59,10.38-55.15,29.5-73.55,54.31H55.64ZM301.79,720.05c11.72-43.63,51.27-75.8,98.14-75.8s86.43,32.18,98.14,75.8h-196.28ZM524.47,653.57c-18.4-24.81-43.94-43.94-73.52-54.32,27.19-17.08,45.33-47.37,45.33-81.83,0-1.64-.05-3.25-.13-4.87,21.45-9.11,44.99-14.16,69.69-14.16,90.45,0,165.57,67.49,178.48,155.17h-219.84Z"/>
</svg>